inDegrees=no
num_controls=7
num_derivatives=13
num_iterations=101
num_multipliers=7
num_parameters=0
num_slacks=7
num_states=26
objective=6.204877
objective_accelerations=0.403769
objective_balance=0.046845
objective_effort=0.430422
objective_height=5.233382
objective_ligament=0.090459
solver_duration=930.601697
status=Solve_Succeeded
success=true
DataType=double
version=3
OpenSimVersion=4.4-2022-07-23-0e9fedc
endheader
time	/jointset/ground_pelvis/pelvis_tilt/value	/jointset/ground_pelvis/pelvis_tx/value	/jointset/ground_pelvis/pelvis_ty/value	/jointset/hip_r/hip_flexion_r/value	/jointset/hip_r/hip_adduction_r/value	/jointset/hip_r/hip_rotation_r/value	/jointset/back/lumbar_extension/value	/jointset/patellofemoral_r/patellar_flexion_r/value	/jointset/knee_r/knee_flexion_r/value	/jointset/knee_r/knee_adduction_r/value	/jointset/knee_r/knee_rotation_r/value	/jointset/ankle_r/ankle_angle_r/value	/jointset/subtalar_r/subtalar_angle_r/value	/jointset/ground_pelvis/pelvis_tilt/speed	/jointset/ground_pelvis/pelvis_tx/speed	/jointset/ground_pelvis/pelvis_ty/speed	/jointset/hip_r/hip_flexion_r/speed	/jointset/hip_r/hip_adduction_r/speed	/jointset/hip_r/hip_rotation_r/speed	/jointset/back/lumbar_extension/speed	/jointset/patellofemoral_r/patellar_flexion_r/speed	/jointset/knee_r/knee_flexion_r/speed	/jointset/knee_r/knee_adduction_r/speed	/jointset/knee_r/knee_rotation_r/speed	/jointset/ankle_r/ankle_angle_r/speed	/jointset/subtalar_r/subtalar_angle_r/speed	/forceset/tau_hip_flexion_r	/forceset/tau_hip_adduction_r	/forceset/tau_hip_rotation_r	/forceset/tau_knee_flexion_r	/forceset/tau_ankle_angle_r	/forceset/tau_subtalar_angle_r	/forceset/tau_lumbar_extension	lambda_cid13_p0	lambda_cid14_p0	lambda_cid14_p1	lambda_cid14_p2	lambda_cid14_p3	lambda_cid14_p4	lambda_cid14_p5	/jointset/ground_pelvis/pelvis_tilt/accel	/jointset/ground_pelvis/pelvis_tx/accel	/jointset/ground_pelvis/pelvis_ty/accel	/jointset/hip_r/hip_flexion_r/accel	/jointset/hip_r/hip_adduction_r/accel	/jointset/hip_r/hip_rotation_r/accel	/jointset/back/lumbar_extension/accel	/jointset/patellofemoral_r/patellar_flexion_r/accel	/jointset/knee_r/knee_flexion_r/accel	/jointset/knee_r/knee_adduction_r/accel	/jointset/knee_r/knee_rotation_r/accel	/jointset/ankle_r/ankle_angle_r/accel	/jointset/subtalar_r/subtalar_angle_r/accel	gamma_cid13_p0	gamma_cid14_p0	gamma_cid14_p1	gamma_cid14_p2	gamma_cid14_p3	gamma_cid14_p4	gamma_cid14_p5
0.5	-0.1018668879674176	0.05400901812113802	0.8641635521653435	0.6919513978538366	-0.2293190879249479	-0.1352345805970039	-0.3164705890661357	0.6835952691897021	0.68359526918973	0.03976255003952028	0.1745122243477903	0.2646640693723458	0.05806353676419541	-0.273563729384503	-0.08745340355697326	-0.3239455355451785	1.406620914950318	-0.009038383130188161	0.2519967297299102	-0.6058875490123173	1.654816410681838	1.654816410681873	-0.2791883572760032	-3.112736057183108e-05	0.610577843044161	0.1634631991085048	-0.07787332845478696	-0.00506567065410837	0.008034474671475857	-0.3332321439324134	0.0572233579722798	-0.01815984168374392	0.1368576039281623	-32.26081424711724	-24.21702872852201	-8.920494692485034	-1.780513221374842	4.282391294179592	-671.071716337079	50.12047211955035	0.06023801256902094	0.2701127120751932	-0.3352311008572509	-0.8748787256411834	-0.05902194121818514	-0.5530369555951823	1.322788948570533	-1.173425688192976	-1.173425688192963	0.4051581285016136	0.004085295763505138	-0.492647528392804	-0.07958600314363275	-1.104913351158699e-07	-1.572881576575391e-07	5.469121617552464e-07	-1.256148820173357e-06	3.719767070181477e-08	-2.09279724242541e-07	8.731936304146469e-07
0.51	-0.1045990598043663	0.0531481000758983	0.8609080572121718	0.7059716456218564	-0.2294132154637211	-0.1327409807610897	-0.3224626009122578	0.7000822748824221	0.7000822748824707	0.03699348006549218	0.1745119775540613	0.2707440714173757	0.05969273839343543	-0.2728321974892956	-0.08472109061834812	-0.3270795567169539	1.397233050905075	-0.009792682579463903	0.2467523689538705	-0.5924364202264129	1.642349607798022	1.642349607797905	-0.2745727081799716	-3.438415692764172e-05	0.6053357745788615	0.1623389150791922	-0.08328217689833947	-0.003445349565397322	0.008701829065905876	-0.3358216390047554	0.0526457149674519	-0.01735323776139756	0.1417967623099341	-31.32409760862538	-25.82078921320955	-8.972597487641046	-1.63330523800044	4.915966169052412	-674.2549044006282	50.04079163348629	0.0853639802282036	0.2761660650889129	-0.2914446808150938	-1.000095539932993	-0.08463276080959889	-0.5059506655688963	1.368034840679406	-1.318554331160094	-1.318554331182831	0.4977146235717095	-0.005171354109021185	-0.5530148035123571	-0.1346475090903626	-9.016627259748404e-08	-9.781918750318196e-08	6.705951347345836e-07	-8.100490208123256e-07	-1.249517539136044e-08	-1.443364122428953e-07	7.517557927117428e-07
0.52	-0.1073227656819162	0.05231478025611229	0.8576234306361873	0.7198921436902516	-0.2295150857598014	-0.130298987538317	-0.3283177494711005	0.7164375631978328	0.7164375631977946	0.03427215584708267	0.1745111701549834	0.2767690471181688	0.06130953760112941	-0.2718705375048564	-0.08193375846623434	-0.3297718601078618	1.386670975021167	-0.01058693458986643	0.2416754070994216	-0.5785148915573924	1.628472935206845	1.628472935206574	-0.2696392061472536	-0.0001432484242299623	0.5995725741970157	0.1609827147992757	-0.08869102534172855	-0.001825028476585091	0.009369183459617042	-0.3384111340770682	0.0480680719626493	-0.01654663383889909	0.1467359206918358	-30.37754590820332	-27.42949798974912	-9.021863717238926	-1.490779796611125	5.537742283657779	-677.5225059859803	50.02776159330081	0.1062636304149425	0.2811165547733985	-0.246887544683734	-1.109721093374182	-0.06701245344367185	-0.5195571712771152	1.416868925193518	-1.455399629665545	-1.455399629665578	0.4687287158390244	-0.01703619842567108	-0.5968739117015327	-0.1259692532643557	-5.748486392786082e-08	1.935491232877592e-08	9.999722098368561e-07	5.627135996917422e-08	-1.210633945605297e-07	-1.357441536557273e-08	5.747491228193954e-07
0.53	-0.1100358498088492	0.05150958489888199	0.8543141113978785	0.7337015059403504	-0.229624439707463	-0.1279097439394128	-0.3340313582338143	0.7326472527500156	0.7326472527500695	0.03159879897560983	0.1745102896486221	0.2827340826191105	0.06291261902729962	-0.2707095777168643	-0.07909672039652439	-0.3320145753547107	1.375008448049927	-0.01129406296586686	0.2362213773075276	-0.5641434527251702	1.613237265186251	1.613237265186045	-0.2649630471440999	-5.897869801690203e-05	0.5933530144695022	0.1595890818817542	-0.09381314733283175	-0.0004422798229544718	0.01003947474374016	-0.3414257553902256	0.04408118335138022	-0.01584576870764105	0.1514520533791106	-29.42556443219246	-28.85675631070658	-9.090517215829683	-1.33918341625983	6.039663380794892	-680.8369763695896	50.04436168349513	0.1265242446325112	0.2862507041042261	-0.2013406629755037	-1.223463765316608	-0.07391261266040369	-0.5511308563184206	1.456792600522255	-1.591799130859311	-1.591799130849479	0.4776171669131629	0.01735288237142568	-0.6467558041940993	-0.1524890393760092	-3.097935429160793e-08	1.086874503812277e-07	1.235092868095348e-06	7.117877614561722e-07	-2.025828891151253e-07	8.559315077688759e-08	4.505897627098705e-07
